
        <svg xmlns="http://www.w3.org/2000/svg" xmlns:xlink="http://www.w3.org/1999/xlink" version="1.1" width="3187.5" 
        height="1802.936090912358" viewBox="0 0 3187.5 1802.936090912358">
			<rect fill="#005792" width="3187.5" height="1802.936090912358"/>
			<g transform="scale(9.375) translate(10, 10)">
				<defs id="SvgjsDefs1750"></defs><g id="SvgjsG1751" featureKey="symbolFeature-0" transform="matrix(1.2234632786672717,0,0,1.2234632786672717,98.93730099824982,-9.414550722758799)" fill="#ffffff"><g xmlns="http://www.w3.org/2000/svg"><path fill="#ffffff" d="M36.446,33.374H15.653c-3.603,0-6.533-2.931-6.533-6.534c0-2.871,1.868-5.369,4.543-6.221   c0.354-4.931,4.479-8.835,9.498-8.835c3.302,0,6.321,1.68,8.077,4.493c0.292,0.469,0.149,1.085-0.319,1.378   c-0.468,0.292-1.085,0.149-1.378-0.319c-1.387-2.224-3.772-3.552-6.379-3.552c-4.148,0-7.522,3.375-7.522,7.522   c0,0.482-0.339,0.993-0.813,1.08c-2.147,0.396-3.705,2.27-3.705,4.454c0,2.5,2.034,4.534,4.533,4.534h20.793   c2.154,0,3.906-1.752,3.906-3.906c0-0.54-0.107-1.061-0.32-1.55c-0.22-0.506,0.012-1.096,0.519-1.315   c0.508-0.222,1.096,0.012,1.315,0.519c0.322,0.742,0.486,1.531,0.486,2.347C42.353,30.724,39.703,33.374,36.446,33.374z"></path></g><g xmlns="http://www.w3.org/2000/svg"><path fill="#ffffff" d="M52.481,23.746H36.506c-2.62,0-4.751-2.131-4.751-4.751c0-2.153,1.444-4.017,3.487-4.578   c0.205-3.775,3.281-6.722,7.032-6.722c2.327,0,4.465,1.127,5.786,3.034c2.937-0.494,5.476,1.783,5.513,4.624   c1.866,0.486,3.178,2.155,3.178,4.125C56.75,21.831,54.835,23.746,52.481,23.746z M42.273,8.695c-3.334,0-6.047,2.713-6.047,6.048   c0,0.241-0.168,0.521-0.405,0.565c-1.777,0.328-3.066,1.878-3.066,3.686c0,2.068,1.683,3.751,3.751,3.751h15.975   c1.803,0,3.27-1.466,3.27-3.269c0-1.624-1.165-2.981-2.77-3.227c-0.26-0.04-0.444-0.273-0.423-0.535   c0.008-0.099,0.016-0.198,0.016-0.299c0-2.351-2.144-4.239-4.629-3.643c-0.212,0.05-0.428-0.04-0.541-0.222   C46.288,9.763,44.37,8.695,42.273,8.695z"></path></g><g xmlns="http://www.w3.org/2000/svg"><path fill="#ffffff" d="M90.143,76.026H67.211c-3.917,0-7.103-3.186-7.103-7.102c0-3.145,2.061-5.878,5.005-6.784   c0.352-5.417,4.872-9.718,10.376-9.718c3.374,0,6.479,1.606,8.435,4.331c4.245-0.599,7.887,2.638,8.062,6.727   c2.692,0.796,4.567,3.251,4.567,6.136C96.553,73.15,93.677,76.026,90.143,76.026z M75.49,54.421c-4.631,0-8.398,3.768-8.398,8.399   l0.005,0.092c0.006,0.487-0.339,0.909-0.818,0.997c-2.417,0.446-4.17,2.555-4.17,5.014c0,2.813,2.289,5.102,5.103,5.102h22.932   c2.432,0,4.411-1.979,4.411-4.41c0-2.19-1.571-4.021-3.736-4.353c-0.518-0.079-0.887-0.544-0.846-1.066   c0.011-0.136,0.021-0.272,0.021-0.411c0-2.813-2.289-5.103-5.103-5.103c-0.385,0-0.787,0.049-1.194,0.147   c-0.421,0.099-0.854-0.079-1.081-0.443C81.064,55.904,78.401,54.421,75.49,54.421z"></path></g><g xmlns="http://www.w3.org/2000/svg"><path fill="#ffffff" d="M15.837,84.788c-0.404,0-0.73-0.122-0.972-0.363c-0.243-0.243-0.365-0.572-0.363-0.979   c0.015-4.342,16.978-21.975,31.205-36.002l1.172-1.163c1.784-1.792,4.227-4.246,6.634-4.246c0.961,0,1.833,0.386,2.594,1.146   c0.762,0.762,1.148,1.637,1.147,2.6c-0.003,2.406-2.456,4.848-4.248,6.631l-1.156,1.165C37.814,67.816,20.171,84.788,15.837,84.788   z M53.513,43.036c-1.991,0-4.265,2.284-5.925,3.951l-1.179,1.17C18.529,75.646,15.507,81.996,15.502,83.45   c0,0.09,0.011,0.209,0.07,0.268c0.059,0.058,0.176,0.07,0.265,0.07c1.451,0,7.795-3.012,35.302-30.913l1.163-1.172   c1.667-1.659,3.95-3.932,3.953-5.923c0-0.697-0.279-1.316-0.854-1.891C54.826,43.315,54.208,43.036,53.513,43.036z"></path></g><g xmlns="http://www.w3.org/2000/svg"><path fill="#ffffff" d="M14.468,80.685c-0.078,0-0.157-0.018-0.231-0.057l-8.492-4.441c-0.141-0.074-0.238-0.21-0.262-0.367   s0.028-0.317,0.141-0.429l2.155-2.155c0.1-0.1,0.224-0.151,0.377-0.146L19.13,73.61c0.276,0.013,0.489,0.248,0.476,0.523   c-0.013,0.276-0.249,0.497-0.523,0.476L8.329,74.098l-1.518,1.518l7.889,4.126c0.245,0.128,0.339,0.43,0.211,0.675   C14.822,80.587,14.648,80.685,14.468,80.685z"></path></g><g xmlns="http://www.w3.org/2000/svg"><path fill="#ffffff" d="M31.19,61.218c-0.081,0-0.162-0.02-0.238-0.061L3.582,46.33c-0.139-0.075-0.234-0.211-0.256-0.368   c-0.023-0.156,0.029-0.314,0.141-0.425l4.507-4.507c0.132-0.132,0.328-0.179,0.505-0.123l18.66,5.92l3.313-3.19   c0.196-0.188,0.507-0.186,0.7,0.007l2.678,2.678c0.181,0.181,0.196,0.468,0.036,0.667l-1.19,1.476l1.087,0.386l4.418-3.796   c0.198-0.17,0.494-0.16,0.679,0.026l2.417,2.417c0.167,0.167,0.194,0.429,0.065,0.627l-1.817,2.777l0.909,0.182   c0.271,0.054,0.446,0.317,0.392,0.588c-0.054,0.271-0.316,0.448-0.588,0.392l-1.634-0.327c-0.163-0.033-0.299-0.144-0.363-0.297   c-0.064-0.153-0.048-0.328,0.042-0.467l2-3.056l-1.802-1.802l-4.287,3.683c-0.136,0.117-0.323,0.152-0.493,0.092l-2.025-0.719   c-0.152-0.054-0.27-0.179-0.313-0.335c-0.044-0.156-0.01-0.324,0.092-0.45l1.351-1.676l-2.013-2.013l-3.174,3.056   c-0.131,0.127-0.323,0.172-0.498,0.116L8.466,41.952L4.648,45.77l26.781,14.509c0.243,0.131,0.333,0.435,0.201,0.678   C31.54,61.124,31.368,61.218,31.19,61.218z"></path></g><g xmlns="http://www.w3.org/2000/svg"><path fill="#ffffff" d="M23.548,93.814c-0.025,0-0.05-0.002-0.076-0.006c-0.157-0.024-0.293-0.122-0.367-0.262l-4.442-8.492   c-0.128-0.245-0.034-0.547,0.211-0.675c0.246-0.129,0.547-0.034,0.675,0.211l4.126,7.889l1.518-1.518l-0.512-10.753   c-0.013-0.276,0.2-0.51,0.476-0.523c0.268-0.016,0.51,0.199,0.523,0.476l0.522,10.975c0.007,0.141-0.046,0.278-0.146,0.377   l-2.155,2.156C23.807,93.763,23.68,93.814,23.548,93.814z"></path></g><g xmlns="http://www.w3.org/2000/svg"><path fill="#ffffff" d="M53.399,95.969c-0.024,0-0.048-0.002-0.072-0.005c-0.156-0.022-0.292-0.118-0.368-0.256L38.132,68.338   c-0.132-0.243-0.042-0.546,0.201-0.678s0.546-0.042,0.678,0.201l14.509,26.78l3.819-3.818l-5.917-18.653   c-0.056-0.175-0.011-0.366,0.116-0.498l3.056-3.174l-2.013-2.014l-1.675,1.352c-0.125,0.103-0.292,0.137-0.45,0.092   c-0.156-0.044-0.281-0.161-0.335-0.314l-0.718-2.025c-0.06-0.169-0.025-0.357,0.092-0.493l3.683-4.287l-1.802-1.802l-3.057,1.999   c-0.14,0.091-0.315,0.106-0.467,0.042c-0.153-0.064-0.264-0.2-0.297-0.363l-0.327-1.633c-0.054-0.271,0.122-0.534,0.392-0.588   c0.273-0.058,0.535,0.121,0.588,0.392l0.182,0.908l2.778-1.816c0.196-0.13,0.458-0.103,0.627,0.065l2.417,2.417   c0.185,0.185,0.196,0.481,0.026,0.679l-3.796,4.418l0.386,1.087l1.476-1.19c0.198-0.16,0.486-0.146,0.667,0.036l2.678,2.678   c0.193,0.193,0.196,0.504,0.007,0.7l-3.19,3.313l5.919,18.659c0.057,0.178,0.009,0.373-0.123,0.505l-4.508,4.507   C53.658,95.917,53.531,95.969,53.399,95.969z"></path></g></g><g id="SvgjsG1752" featureKey="nameFeature-0" transform="matrix(0.9714365546434914,0,0,0.9714365546434914,-0.5122383796445383,117.43210516583356)" fill="#ffffff"><path d="M7.5586 40 l-7.0313 -28.711 l7.7148 0 l4.8438 20.508 l5.918 -20.508 l6.1914 0 l5.8789 20.508 l4.8828 -20.508 l7.7148 0 l-7.0313 28.711 l-9.8438 0 l-4.7266 -14.961 l-4.668 14.961 l-9.8438 0 z M66.15412109375 40 l-1.8555 -5.3125 l-11.484 0 l-1.8359 5.3125 l-7.5586 0 l10.566 -28.711 l9.1602 0 l10.566 28.711 l-7.5586 0 z M54.94312109375 28.555 l7.2266 0 l-3.6133 -10.391 z M95.9406171875 11.289000000000001 l7.4414 0 l0 28.711 l-8.8477 0 l-10.957 -18.633 l0 18.633 l-7.4414 0 l0 -28.711 l8.75 0 l11.055 18.535 l0 -18.535 z M108.79343203125 40 l0 -28.711 l11.113 0 c9.3945 0 13.965 5.625 13.965 14.355 c0 8.7109 -4.5703 14.355 -13.965 14.355 l-11.113 0 z M116.23533203125 33.4766 l3.2813 0 c4.5117 0 6.5234 -2.5977 6.5234 -7.832 c0 -5.2539 -2.0117 -7.8906 -6.5234 -7.8906 l-3.2813 0 l0 15.723 z M154.947734375 17.754 l-10 0 l0 4.6875 l8.9063 0 l0 6.4063 l-8.9063 0 l0 4.6289 l10 0 l0 6.5234 l-17.441 0 l0 -28.711 l17.441 0 l0 6.4648 z M183.32751171875 40 l-8.8281 0 l-7.4805 -12.305 l0 12.305 l-7.4414 0 l0 -28.711 l10.996 0 c6.875 0 9.6094 3.9453 9.6094 8.8672 c0 4.043 -2.3828 6.4063 -5.8203 7.1484 z M173.09351171875 20.234 c0 -1.7578 -0.99609 -2.8711 -3.75 -2.8711 l-2.3242 0 l0 5.7617 l2.3242 0 c2.7539 0 3.75 -1.1328 3.75 -2.8906 z M189.9111390625 40 l-7.0313 -28.711 l7.7148 0 l4.8438 20.508 l5.918 -20.508 l6.1914 0 l5.8789 20.508 l4.8828 -20.508 l7.7148 0 l-7.0313 28.711 l-9.8438 0 l-4.7266 -14.961 l-4.668 14.961 l-9.8438 0 z M241.76766015625 40.39063 c-8.6719 0 -14.902 -5.8789 -14.902 -14.746 c0 -8.9258 6.2305 -14.766 14.902 -14.766 c8.6914 0 14.922 5.8398 14.922 14.766 c0 8.8672 -6.2305 14.746 -14.922 14.746 z M241.76766015625 33.6328 c4.3359 0 7.5781 -3.0664 7.5781 -7.9883 s-3.2422 -8.0078 -7.5781 -8.0078 c-4.3164 0 -7.5195 3.0859 -7.5195 8.0078 s3.2031 7.9883 7.5195 7.9883 z M283.95690625 40 l-8.8281 0 l-7.4805 -12.305 l0 12.305 l-7.4414 0 l0 -28.711 l10.996 0 c6.875 0 9.6094 3.9453 9.6094 8.8672 c0 4.043 -2.3828 6.4063 -5.8203 7.1484 z M273.72290625 20.234 c0 -1.7578 -0.99609 -2.8711 -3.75 -2.8711 l-2.3242 0 l0 5.7617 l2.3242 0 c2.7539 0 3.75 -1.1328 3.75 -2.8906 z M293.62693359375 33.4766 l8.3984 0 l0 6.5234 l-15.84 0 l0 -28.711 l7.4414 0 l0 22.188 z M304.8583734375 40 l0 -28.711 l11.113 0 c9.3945 0 13.965 5.625 13.965 14.355 c0 8.7109 -4.5703 14.355 -13.965 14.355 l-11.113 0 z M312.3002734375 33.4766 l3.2813 0 c4.5117 0 6.5234 -2.5977 6.5234 -7.832 c0 -5.2539 -2.0117 -7.8906 -6.5234 -7.8906 l-3.2813 0 l0 15.723 z"></path></g><g id="SvgjsG1753" featureKey="sloganFeature-0" transform="matrix(0.3663743670835529,0,0,0.3663743670835529,47.33092712775728,164.914139068914)" fill="#ffffff"><path d="M1.8262 20 l0 -14.111 l5.1074 0 c4.502 0 6.7285 2.832 6.7285 7.0508 c0 4.2285 -2.2266 7.0605 -6.7285 7.0605 l-5.1074 0 z M4.7559 17.4121 l2.0313 0 c2.5977 0 3.7891 -1.6211 3.7891 -4.4727 s-1.1914 -4.4727 -3.7891 -4.4727 l-2.0313 0 l0 8.9453 z M26.860585937499998 8.467 l-5.2344 0 l0 3.2031 l4.6387 0 l0 2.5488 l-4.6387 0 l0 3.1934 l5.2344 0 l0 2.5879 l-8.1836 0 l0 -14.111 l8.1836 0 l0 2.5781 z M36.835965625 20.19531 c-3.0273 0 -5.3906 -1.4551 -5.8203 -4.1016 l3.0273 -0.69336 c0.19531 1.582 1.3574 2.4023 2.9102 2.4023 c1.1914 0 2.1387 -0.52734 2.1289 -1.7188 c-0.0097656 -1.3281 -1.5723 -1.748 -3.291 -2.2754 c-2.0703 -0.64453 -4.2871 -1.4063 -4.2871 -4.0039 c0 -2.627 2.1484 -4.1113 4.9805 -4.1113 c2.4805 0 4.9805 1.0059 5.5469 3.7109 l-2.832 0.70313 c-0.26367 -1.4063 -1.2109 -2.0215 -2.5391 -2.0215 c-1.1816 0 -2.1875 0.48828 -2.1875 1.6504 c0 1.084 1.3867 1.4453 2.9883 1.9238 c2.1289 0.64453 4.6484 1.4648 4.6484 4.2773 c0 2.998 -2.5098 4.2578 -5.2734 4.2578 z M55.2687890625 8.467 l-5.2344 0 l0 3.2031 l4.6387 0 l0 2.5488 l-4.6387 0 l0 3.1934 l5.2344 0 l0 2.5879 l-8.1836 0 l0 -14.111 l8.1836 0 l0 2.5781 z M70.19546875 5.888999999999999 l2.9199 0 l0 14.111 l-3.3887 0 l-6.25 -10.088 l0 10.088 l-2.9199 0 l0 -14.111 l3.3496 0 l6.2891 10.029 l0 -10.029 z M88.0129140625 5.888999999999999 l3.1152 0 l-5.2148 14.111 l-3.2227 0 l-5.1855 -14.111 l3.1055 0 l3.7012 10.693 z M101.76760625 20.19531 c-4.1504 0 -7.2168 -2.832 -7.2168 -7.2559 c0 -4.4336 3.0664 -7.2461 7.2168 -7.2461 c4.1406 0 7.207 2.8125 7.207 7.2461 c0 4.4238 -3.0664 7.2559 -7.207 7.2559 z M101.76760625 17.5098 c2.4316 0 4.2969 -1.709 4.2969 -4.5703 c0 -2.8516 -1.8652 -4.5508 -4.2969 -4.5508 s-4.2969 1.6992 -4.2969 4.5508 c0 2.8613 1.8652 4.5703 4.2969 4.5703 z M116.8701578125 17.4121 l4.4238 0 l0 2.5879 l-7.3535 0 l0 -14.111 l2.9297 0 l0 11.523 z M134.775609375 5.888999999999999 l3.1152 0 l-5.2148 14.111 l-3.2227 0 l-5.1855 -14.111 l3.1055 0 l3.7012 10.693 z M142.2803015625 20 l0 -14.111 l2.9297 0 l0 14.111 l-2.9297 0 z M167.294875 20 l-2.9199 0 l-0.92773 -10.635 l-3.5742 10.635 l-1.8945 0 l-3.5742 -10.635 l-0.9375 10.635 l-2.9297 0 l1.1816 -14.111 l4.1797 0 l3.0078 8.8574 l3.0469 -8.8574 l4.1797 0 z M180.8156640625 8.467 l-5.2344 0 l0 3.2031 l4.6387 0 l0 2.5488 l-4.6387 0 l0 3.1934 l5.2344 0 l0 2.5879 l-8.1836 0 l0 -14.111 l8.1836 0 l0 2.5781 z M195.74234375 5.888999999999999 l2.9199 0 l0 14.111 l-3.3887 0 l-6.25 -10.088 l0 10.088 l-2.9199 0 l0 -14.111 l3.3496 0 l6.2891 10.029 l0 -10.029 z M212.7687890625 5.888999999999999 l0 2.5781 l-3.3496 0 l0 11.533 l-2.9004 0 l0 -11.533 l-3.3691 0 l0 -2.5781 l9.6191 0 z M223.5058875 20.19531 c-4.1504 0 -7.2168 -2.832 -7.2168 -7.2559 c0 -4.4336 3.0664 -7.2461 7.2168 -7.2461 c4.1406 0 7.207 2.8125 7.207 7.2461 c0 4.4238 -3.0664 7.2559 -7.207 7.2559 z M223.5058875 17.5098 c2.4316 0 4.2969 -1.709 4.2969 -4.5703 c0 -2.8516 -1.8652 -4.5508 -4.2969 -4.5508 s-4.2969 1.6992 -4.2969 4.5508 c0 2.8613 1.8652 4.5703 4.2969 4.5703 z M243.144559375 20 l0 -14.111 l5.1074 0 c4.502 0 6.7285 2.832 6.7285 7.0508 c0 4.2285 -2.2266 7.0605 -6.7285 7.0605 l-5.1074 0 z M246.074259375 17.4121 l2.0313 0 c2.5977 0 3.7891 -1.6211 3.7891 -4.4727 s-1.1914 -4.4727 -3.7891 -4.4727 l-2.0313 0 l0 8.9453 z M268.1789453125 8.467 l-5.2344 0 l0 3.2031 l4.6387 0 l0 2.5488 l-4.6387 0 l0 3.1934 l5.2344 0 l0 2.5879 l-8.1836 0 l0 -14.111 l8.1836 0 l0 2.5781 z M289.9074453125 5.888999999999999 l3.1152 0 l-5.2148 14.111 l-3.2227 0 l-5.1855 -14.111 l3.1055 0 l3.7012 10.693 z M297.4121375 20 l0 -14.111 l2.9297 0 l0 14.111 l-2.9297 0 z M315.6987109375 20 l-1.0254 -2.9102 l-5.9277 0 l-1.0254 2.9102 l-2.998 0 l5.1953 -14.111 l3.584 0 l5.1953 14.111 l-2.998 0 z M309.6045109375 14.6387 l4.209 0 l-2.0996 -5.9863 z M329.189465625 20.19531 c-4.0723 0 -7.0703 -2.8125 -7.0703 -7.2168 c0 -4.4629 3.0664 -7.2852 7.2168 -7.2852 c2.7246 0 4.9805 1.2012 6.2109 3.3203 l-2.5684 1.3672 c-0.74219 -1.4453 -2.0703 -2.1387 -3.6426 -2.1387 c-2.4414 0 -4.2773 1.6797 -4.2773 4.668 c0 2.8809 1.7188 4.7363 4.3848 4.7363 c1.8066 0 3.4668 -0.89844 3.8672 -2.959 l-3.8574 0 l0 -2.3535 l6.6309 0 l0 7.666 l-2.3047 0 l0 -1.9531 c-0.9082 1.3379 -2.4316 2.1484 -4.5898 2.1484 z M349.5754296875 8.467 l-5.2344 0 l0 3.2031 l4.6387 0 l0 2.5488 l-4.6387 0 l0 3.1934 l5.2344 0 l0 2.5879 l-8.1836 0 l0 -14.111 l8.1836 0 l0 2.5781 z M364.502109375 5.888999999999999 l2.9199 0 l0 14.111 l-3.3887 0 l-6.25 -10.088 l0 10.088 l-2.9199 0 l0 -14.111 l3.3496 0 l6.2891 10.029 l0 -10.029 z M378.0322546875 20.19531 c-3.0273 0 -5.3906 -1.4551 -5.8203 -4.1016 l3.0273 -0.69336 c0.19531 1.582 1.3574 2.4023 2.9102 2.4023 c1.1914 0 2.1387 -0.52734 2.1289 -1.7188 c-0.0097656 -1.3281 -1.5723 -1.748 -3.291 -2.2754 c-2.0703 -0.64453 -4.2871 -1.4063 -4.2871 -4.0039 c0 -2.627 2.1484 -4.1113 4.9805 -4.1113 c2.4805 0 4.9805 1.0059 5.5469 3.7109 l-2.832 0.70313 c-0.26367 -1.4063 -1.2109 -2.0215 -2.5391 -2.0215 c-1.1816 0 -2.1875 0.48828 -2.1875 1.6504 c0 1.084 1.3867 1.4453 2.9883 1.9238 c2.1289 0.64453 4.6484 1.4648 4.6484 4.2773 c0 2.998 -2.5098 4.2578 -5.2734 4.2578 z M401.9970984375 20.19531 c-4.1504 0 -7.2168 -2.8223 -7.2168 -7.2559 s3.0664 -7.2461 7.2168 -7.2461 c3.1445 0 5.6641 1.6113 6.6699 4.2871 l-2.7344 0.99609 c-0.625 -1.6406 -2.1191 -2.5879 -3.9355 -2.5879 c-2.4316 0 -4.2969 1.6992 -4.2969 4.5508 s1.8652 4.5605 4.2969 4.5605 c1.8164 0 3.3105 -0.95703 3.9355 -2.5977 l2.7344 0.99609 c-1.0059 2.6758 -3.5254 4.2969 -6.6699 4.2969 z M419.589871875 20.19531 c-4.1504 0 -7.2168 -2.832 -7.2168 -7.2559 c0 -4.4336 3.0664 -7.2461 7.2168 -7.2461 c4.1406 0 7.207 2.8125 7.207 7.2461 c0 4.4238 -3.0664 7.2559 -7.207 7.2559 z M419.589871875 17.5098 c2.4316 0 4.2969 -1.709 4.2969 -4.5703 c0 -2.8516 -1.8652 -4.5508 -4.2969 -4.5508 s-4.2969 1.6992 -4.2969 4.5508 c0 2.8613 1.8652 4.5703 4.2969 4.5703 z M447.9345234375 20 l-2.9199 0 l-0.92773 -10.635 l-3.5742 10.635 l-1.8945 0 l-3.5742 -10.635 l-0.9375 10.635 l-2.9297 0 l1.1816 -14.111 l4.1797 0 l3.0078 8.8574 l3.0469 -8.8574 l4.1797 0 z M459.1406125 5.888999999999999 c2.7637 0 4.4824 2.0508 4.4824 4.5605 c0 2.5684 -1.7188 4.4922 -4.4824 4.4922 l-2.9395 0 l0 5.0586 l-2.9297 0 l0 -14.111 l5.8691 0 z M458.6523125 12.4902 c1.4648 0 2.1484 -0.81055 2.1484 -2.0801 c0 -1.2207 -0.68359 -2.0703 -2.1484 -2.0703 l-2.4512 0 l0 4.1504 l2.4512 0 z M473.5791203125 20.19531 c-3.0957 0 -5.5176 -1.582 -5.5176 -5.1367 l0 -9.1699 l2.9297 0 l0 8.7695 c0 2.1484 1.1426 2.9492 2.5879 2.9492 c1.4551 0 2.6074 -0.81055 2.6074 -2.9492 l0 -8.7695 l2.9297 0 l0 9.1699 c0 3.5547 -2.4316 5.1367 -5.5371 5.1367 z M492.929921875 5.888999999999999 l0 2.5781 l-3.3496 0 l0 11.533 l-2.9004 0 l0 -11.533 l-3.3691 0 l0 -2.5781 l9.6191 0 z M506.8608203125 20 l-1.0254 -2.9102 l-5.9277 0 l-1.0254 2.9102 l-2.998 0 l5.1953 -14.111 l3.584 0 l5.1953 14.111 l-2.998 0 z M500.7666203125 14.6387 l4.209 0 l-2.0996 -5.9863 z M520.498075 20.19531 c-4.1504 0 -7.2168 -2.8223 -7.2168 -7.2559 s3.0664 -7.2461 7.2168 -7.2461 c3.1445 0 5.6641 1.6113 6.6699 4.2871 l-2.7344 0.99609 c-0.625 -1.6406 -2.1191 -2.5879 -3.9355 -2.5879 c-2.4316 0 -4.2969 1.6992 -4.2969 4.5508 s1.8652 4.5605 4.2969 4.5605 c1.8164 0 3.3105 -0.95703 3.9355 -2.5977 l2.7344 0.99609 c-1.0059 2.6758 -3.5254 4.2969 -6.6699 4.2969 z M531.8408484375 20 l0 -14.111 l2.9297 0 l0 14.111 l-2.9297 0 z M546.933621875 20.19531 c-4.1504 0 -7.2168 -2.832 -7.2168 -7.2559 c0 -4.4336 3.0664 -7.2461 7.2168 -7.2461 c4.1406 0 7.207 2.8125 7.207 7.2461 c0 4.4238 -3.0664 7.2559 -7.207 7.2559 z M546.933621875 17.5098 c2.4316 0 4.2969 -1.709 4.2969 -4.5703 c0 -2.8516 -1.8652 -4.5508 -4.2969 -4.5508 s-4.2969 1.6992 -4.2969 4.5508 c0 2.8613 1.8652 4.5703 4.2969 4.5703 z M568.7452734375 5.888999999999999 l2.9199 0 l0 14.111 l-3.3887 0 l-6.25 -10.088 l0 10.088 l-2.9199 0 l0 -14.111 l3.3496 0 l6.2891 10.029 l0 -10.029 z M587.03171875 20 l-1.0254 -2.9102 l-5.9277 0 l-1.0254 2.9102 l-2.998 0 l5.1953 -14.111 l3.584 0 l5.1953 14.111 l-2.998 0 z M580.93751875 14.6387 l4.209 0 l-2.0996 -5.9863 z M594.4189734375 20 l0 -14.111 l2.9297 0 l0 14.111 l-2.9297 0 z M607.949246875 20.19531 c-3.0273 0 -5.3906 -1.4551 -5.8203 -4.1016 l3.0273 -0.69336 c0.19531 1.582 1.3574 2.4023 2.9102 2.4023 c1.1914 0 2.1387 -0.52734 2.1289 -1.7188 c-0.0097656 -1.3281 -1.5723 -1.748 -3.291 -2.2754 c-2.0703 -0.64453 -4.2871 -1.4063 -4.2871 -4.0039 c0 -2.627 2.1484 -4.1113 4.9805 -4.1113 c2.4805 0 4.9805 1.0059 5.5469 3.7109 l-2.832 0.70313 c-0.26367 -1.4063 -1.2109 -2.0215 -2.5391 -2.0215 c-1.1816 0 -2.1875 0.48828 -2.1875 1.6504 c0 1.084 1.3867 1.4453 2.9883 1.9238 c2.1289 0.64453 4.6484 1.4648 4.6484 4.2773 c0 2.998 -2.5098 4.2578 -5.2734 4.2578 z"></path></g>
			</g>
		</svg>
	